<svg width="24" height="24" viewBox="0 0 24 24" fill="none" xmlns="http://www.w3.org/2000/svg">
<rect width="24" height="24" rx="12" fill="#F3BF03"/>
<path d="M6.6 7H17.4C17.5591 7 17.7117 7.06146 17.8243 7.17085C17.9368 7.28025 18 7.42862 18 7.58333V16.9167C18 17.0714 17.9368 17.2197 17.8243 17.3291C17.7117 17.4385 17.5591 17.5 17.4 17.5H6.6C6.44087 17.5 6.28826 17.4385 6.17574 17.3291C6.06321 17.2197 6 17.0714 6 16.9167V7.58333C6 7.42862 6.06321 7.28025 6.17574 7.17085C6.28826 7.06146 6.44087 7 6.6 7ZM12.036 12.0651L8.1888 8.88883L7.4118 9.77783L12.0438 13.6016L16.5924 9.77492L15.8076 8.89233L12.0366 12.0651H12.036Z" fill="white"/>
</svg>
