<svg width="1695" height="466" viewBox="0 0 1695 466" fill="none" xmlns="http://www.w3.org/2000/svg">
<g clip-path="url(#clip0_286_67719)">
<mask id="mask0_286_67719" style="mask-type:luminance" maskUnits="userSpaceOnUse" x="0" y="0" width="1695" height="467">
<path d="M1694.09 0.0249023H0.751465V466.755H1694.09V0.0249023Z" fill="white"/>
</mask>
<g mask="url(#mask0_286_67719)">
<path d="M625.821 306.067C618.221 355.407 620.888 371.676 639.554 371.676C662.754 371.676 690.888 332.337 694.755 299.266L710.355 174.582L819.555 153.646L781.955 459.821H677.821L680.354 419.949H678.488C656.621 448.086 627.688 466.222 593.287 466.222C538.754 466.222 502.354 437.418 515.554 345.539L539.554 174.715L648.488 153.646L625.954 306.067H625.821ZM400.753 147.512C460.887 147.512 482.887 186.85 471.02 276.863L447.153 459.821H341.153L362.486 300.466C368.086 259.26 365.686 242.325 348.753 242.325C331.82 242.325 301.153 272.862 291.019 349.806L276.619 459.821H170.619L191.286 300.466C196.886 259.26 197.552 242.325 178.086 242.325C163.019 242.325 130.485 269.128 122.352 337.271L107.285 459.688H0.751465L35.685 175.249L144.885 153.646L141.152 186.184L143.685 186.85C166.886 161.914 197.019 147.512 233.286 147.512C266.486 147.512 287.819 160.047 297.153 189.384H300.353C324.886 162.58 357.286 147.512 400.753 147.512Z" fill="#FB1F21"/>
<path d="M1065.29 147.512C1030.22 147.512 1001.95 166.181 981.822 194.318L980.621 193.651L1003.82 0.0249023L894.621 20.9611L843.421 435.951C881.688 455.42 924.221 466.488 980.088 466.488C1101.16 466.488 1162.49 394.612 1162.49 273.395C1162.49 201.519 1128.09 147.245 1065.29 147.245V147.512ZM980.621 371.676C973.021 371.676 963.688 370.475 954.355 369.142L956.221 355.407C966.221 280.463 998.222 241.658 1026.49 241.658C1042.76 241.658 1055.29 258.593 1055.29 284.73C1055.29 331.003 1029.56 371.676 980.621 371.676Z" fill="url(#paint0_linear_286_67719)"/>
<path d="M1468.36 232.99C1469.56 173.649 1409.42 147.379 1360.49 147.379C1257.02 147.379 1188.62 231.657 1188.62 337.271C1187.96 416.615 1241.29 466.089 1319.02 466.089C1379.82 466.089 1425.02 442.352 1455.69 393.679L1377.96 351.807C1362.89 373.676 1345.29 381.144 1329.02 381.144C1314.62 381.144 1297.02 372.343 1291.42 348.606C1379.82 339.805 1466.36 310.468 1468.22 233.124L1468.36 232.99ZM1294.62 291.798C1303.96 256.86 1325.96 233.657 1350.36 233.657C1361.69 233.657 1368.49 239.791 1367.96 251.126C1366.76 277.396 1333.56 287.398 1294.62 291.798Z" fill="url(#paint1_linear_286_67719)"/>
<path d="M1625.83 238.723H1683.56L1694.23 153.778H1636.49L1649.69 46.2969L1540.63 67.4998L1529.29 153.645H1499.82L1489.16 238.59H1518.62L1503.56 364.207C1494.22 443.551 1534.89 466.087 1580.09 466.087C1610.76 466.087 1636.49 459.153 1665.29 444.218L1647.16 364.874C1637.83 369.274 1629.56 371.808 1623.29 371.808C1615.69 371.808 1610.76 364.874 1612.63 351.805L1625.83 238.723Z" fill="url(#paint2_linear_286_67719)"/>
</g>
</g>
<defs>
<linearGradient id="paint0_linear_286_67719" x1="1002.89" y1="306.733" x2="1002.89" y2="466.755" gradientUnits="userSpaceOnUse">
<stop stop-color="white"/>
<stop offset="1" stop-color="#ADADAD"/>
</linearGradient>
<linearGradient id="paint1_linear_286_67719" x1="1328.49" y1="357.007" x2="1328.49" y2="466.222" gradientUnits="userSpaceOnUse">
<stop stop-color="white"/>
<stop offset="1" stop-color="#ADADAD"/>
</linearGradient>
<linearGradient id="paint2_linear_286_67719" x1="1591.56" y1="322.201" x2="1591.56" y2="466.087" gradientUnits="userSpaceOnUse">
<stop stop-color="white"/>
<stop offset="1" stop-color="#ADADAD"/>
</linearGradient>
<clipPath id="clip0_286_67719">
<rect width="1693.47" height="466.73" fill="white" transform="translate(0.751465 0.0249023)"/>
</clipPath>
</defs>
</svg>
