<svg width="24" height="24" viewBox="0 0 24 24" fill="none" xmlns="http://www.w3.org/2000/svg">
<rect width="24" height="24" rx="12" fill="#00BF3E"/>
<path d="M16.9991 11.1042C16.9991 9.18791 15.1401 7.62891 12.8551 7.62891C10.57 7.62891 8.71094 9.18793 8.71094 11.1042C8.71094 13.0205 10.57 14.5795 12.8551 14.5795C12.9288 14.5795 13.0026 14.5779 13.0762 14.5746C13.3053 14.5645 13.5346 14.6147 13.7308 14.7334C14.4592 15.174 15.0068 15.4169 15.3621 15.4563C15.3761 15.4578 15.3902 15.4586 15.404 15.4586C15.5333 15.4586 15.653 15.3942 15.7243 15.2861C15.804 15.1652 15.8092 15.0118 15.7382 14.8865C15.7358 14.8821 15.5655 14.5714 15.5129 14.191C15.4761 13.9246 15.6423 13.6899 15.8452 13.5134C16.5844 12.8705 16.9991 12.0151 16.9991 11.1042ZM11.7296 11.6291C11.3905 11.6291 11.1157 11.3542 11.1157 11.0152C11.1157 10.6762 11.3905 10.4013 11.7296 10.4013C12.0686 10.4013 12.3435 10.6762 12.3435 11.0152C12.3435 11.3542 12.0686 11.6291 11.7296 11.6291ZM13.9806 11.6291C13.6415 11.6291 13.3666 11.3542 13.3666 11.0152C13.3666 10.6762 13.6415 10.4013 13.9806 10.4013C14.3196 10.4013 14.5945 10.6762 14.5945 11.0152C14.5945 11.3542 14.3196 11.6291 13.9806 11.6291Z" fill="white"/>
<path d="M9.5873 13.8844C9.17611 13.5439 8.85198 13.1454 8.62404 12.6999C8.38369 12.2302 8.26185 11.7305 8.26185 11.2149C8.26185 10.6992 8.38371 10.1995 8.62404 9.72984C8.63962 9.6994 8.60621 9.667 8.57706 9.6849C7.62095 10.272 7 11.2131 7 12.2722C7 13.142 7.41345 13.9559 8.14805 14.5576C8.34012 14.715 8.50492 14.9206 8.50122 15.1689C8.49322 15.7049 8.23152 16.1739 8.22812 16.1798C8.20443 16.2216 8.20618 16.2732 8.23261 16.3133C8.25644 16.3494 8.29667 16.3708 8.33936 16.3708C8.34409 16.3708 8.34879 16.3705 8.35356 16.37C8.74295 16.3268 9.38097 15.9878 9.94197 15.6448C10.1448 15.5208 10.3832 15.4708 10.6206 15.4842C10.7097 15.4892 10.7991 15.4917 10.8883 15.4917C11.5447 15.4917 12.1634 15.3563 12.7062 15.1175C12.7976 15.0773 12.7617 14.946 12.6618 14.946C11.506 14.946 10.4141 14.5689 9.5873 13.8844Z" fill="white"/>
</svg>
