<svg width="24" height="24" viewBox="0 0 24 24" fill="none" xmlns="http://www.w3.org/2000/svg">
<rect width="24" height="24" rx="12" fill="#4168B2"/>
<g clip-path="url(#clip0_9715_21627)">
<path d="M10.5125 17.7879V12.8965H9V10.6346H10.5125C10.5089 9.43218 10.4329 8.05467 11.2339 7.06544C12.1687 5.91072 14.0302 5.88365 15.3782 6.11493C15.4228 6.12257 15.7145 6.1712 15.7145 6.20272V8.21018C15.7145 8.22036 15.6975 8.22552 15.6857 8.22559C15.6033 8.2258 15.5049 8.20481 15.4253 8.20255C14.9916 8.19032 14.4406 8.17265 14.0295 8.30624C13.0121 8.63677 13.2029 9.78554 13.1843 10.6348H15.5874L15.1775 12.8967H13.1843V17.9436C13.1707 17.9586 13.1542 17.9735 13.1334 17.9753C13.0423 17.9834 12.9502 17.989 12.8589 17.9922C12.8497 17.9925 12.8403 17.9897 12.8309 17.986C12.8063 17.9981 12.77 17.9969 12.7461 17.986C12.7373 17.9963 12.7272 17.9965 12.7178 17.986C12.709 17.9963 12.6989 17.9965 12.6896 17.986C12.6664 17.9964 12.6424 17.9964 12.6189 17.986C12.6067 17.9967 12.5887 17.9966 12.5765 17.986C12.5595 17.9908 12.5407 17.9955 12.5199 18.0001H12.0676C12.0477 17.9954 12.0289 17.9907 12.011 17.986C11.9988 17.9966 11.9808 17.9967 11.9686 17.986C11.9452 17.9964 11.9211 17.9964 11.8979 17.986C11.8857 17.9967 11.8678 17.9969 11.8555 17.986C11.8481 17.9975 11.8379 17.9943 11.8273 17.986C11.8087 17.9967 11.7762 17.9979 11.7566 17.986C11.5542 17.996 11.3512 17.976 11.1507 17.9471C10.939 17.9167 10.7005 17.8822 10.5127 17.7881L10.5125 17.7879Z" fill="white"/>
</g>
<defs>
<clipPath id="clip0_9715_21627">
<rect width="6.71452" height="12" fill="white" transform="translate(9 6)"/>
</clipPath>
</defs>
</svg>
